<svg xmlns="http://www.w3.org/2000/svg" width="1024" height="1024" viewBox="0 0 1024 1024">
<path d="M406.30 344.10 L578.58 604.48 L578.51 604.48 L573.74 411.76 Q573.21 386.37 570.74 372.51 Q568.26 358.64 561.80 352.55 Q555.33 346.45 542.43 344.39 L542.43 344.10 L612.68 344.10 L612.68 344.33 Q600.34 346.25 593.90 352.47 Q587.46 358.68 585.05 372.49 Q582.65 386.30 582.28 411.76 L578.46 679.90 L543.04 679.90 L333.62 363.20 L336.59 363.20 L340.67 612.24 Q341.20 637.63 343.59 651.49 Q345.98 665.36 352.64 671.37 Q359.31 677.38 371.98 679.61 L371.98 679.90 L301.73 679.90 L301.73 679.67 Q314.24 677.58 320.62 671.45 Q327.01 665.32 329.42 651.39 Q331.83 637.47 332.13 612.24 L336.00 384.74 Q336.23 372.50 333.35 364.69 Q330.48 356.89 324.59 352.04 Q318.69 347.19 309.74 344.33 L309.74 344.10 Z " fill="#3b2f27"/>
</svg>